<?xml version="1.0" standalone="no"?>
<!DOCTYPE svg PUBLIC "-//W3C//DTD SVG 20010904//EN"
 "http://www.w3.org/TR/2001/REC-SVG-20010904/DTD/svg10.dtd">
<svg version="1.0" xmlns="http://www.w3.org/2000/svg"
 width="156.000000pt" height="156.000000pt" viewBox="0 0 156.000000 156.000000"
 preserveAspectRatio="xMidYMid meet">
<metadata>
Created by potrace 1.14, written by Peter Selinger 2001-2017
</metadata>
<g transform="translate(0.000000,156.000000) scale(0.100000,-0.100000)"
fill="#000000" stroke="none">
<path d="M0 780 l0 -780 780 0 780 0 0 780 0 780 -780 0 -780 0 0 -780z m1025
520 c161 -61 235 -168 236 -340 1 -98 -16 -143 -99 -263 -65 -97 -67 -100 -70
-173 -3 -53 1 -87 14 -124 11 -32 14 -54 8 -60 -45 -45 -353 -63 -429 -25 -35
17 -41 25 -46 62 -8 66 -20 73 -106 71 -102 -3 -113 10 -113 131 0 47 -5 93
-10 101 -5 8 -24 20 -42 26 -18 6 -35 19 -36 28 -2 10 18 50 45 89 47 71 48
73 48 152 0 67 4 89 28 137 48 97 161 185 268 208 75 16 236 5 304 -20z"/>
<path d="M837 1259 c-10 -6 -30 -8 -46 -4 -19 4 -35 0 -53 -15 -15 -11 -41
-20 -61 -20 -41 0 -66 -23 -48 -44 6 -7 22 -11 36 -8 27 5 32 -7 13 -26 -20
-20 -55 -14 -76 13 -19 24 -21 24 -37 9 -9 -9 -14 -21 -12 -28 2 -6 -9 -19
-24 -28 -36 -22 -47 -63 -28 -97 19 -34 55 -38 85 -10 16 15 28 19 34 13 14
-14 -25 -64 -48 -64 -13 -1 -10 -7 11 -25 20 -18 40 -25 68 -25 36 0 39 -2 39
-29 0 -36 40 -71 80 -71 15 0 44 13 65 30 28 22 41 28 49 20 15 -15 -45 -69
-85 -77 -62 -12 -8 -38 99 -47 18 -2 38 -8 45 -15 6 -6 28 -11 49 -11 31 0 42
6 65 35 15 19 36 35 46 35 23 0 57 35 57 60 0 12 10 34 21 50 24 32 29 93 10
128 -14 26 -52 29 -71 7 -16 -19 -40 -19 -40 -1 0 20 39 46 67 46 18 0 23 6
23 25 0 14 -7 28 -16 32 -8 3 -20 16 -25 29 -4 13 -17 24 -26 24 -10 0 -23 10
-28 23 -7 15 -20 23 -42 25 -17 2 -37 10 -43 18 -7 8 -27 14 -46 14 -18 0 -36
5 -39 10 -8 13 -45 12 -68 -1z m8 -62 c10 -38 -11 -77 -50 -93 -35 -14 -55
-12 -55 6 0 6 16 16 35 24 31 13 35 19 35 50 0 42 26 51 35 13z m145 -12 c5
-14 18 -25 28 -25 27 0 62 -29 62 -51 0 -25 -12 -24 -36 2 -15 17 -27 20 -62
16 -44 -5 -66 9 -38 25 11 6 14 17 10 34 -9 33 23 33 36 -1z m-198 -155 c-6
-11 -12 -36 -12 -56 0 -48 -24 -40 -28 10 -4 45 23 95 41 77 9 -9 8 -17 -1
-31z m97 -5 c13 -22 28 -35 41 -35 14 0 24 -10 31 -30 6 -16 19 -32 30 -35 10
-4 19 -13 19 -21 0 -26 -43 -11 -65 22 -11 17 -31 36 -45 41 -29 11 -55 55
-47 77 9 22 12 20 36 -19z m66 -240 c19 -20 29 -23 60 -18 30 5 37 3 33 -8 -8
-23 -53 -34 -86 -20 -29 12 -57 53 -45 65 10 10 14 7 38 -19z"/>
</g>
</svg>
